<svg t="1651997625398" class="icon" viewBox="0 0 1024 1024" version="1.1" xmlns="http://www.w3.org/2000/svg" p-id="3997" width="32" height="32"><path d="M394.666667 106.666667h448a74.666667 74.666667 0 0 1 74.666666 74.666666v448a74.666667 74.666667 0 0 1-74.666666 74.666667H394.666667a74.666667 74.666667 0 0 1-74.666667-74.666667V181.333333a74.666667 74.666667 0 0 1 74.666667-74.666666z m0 64a10.666667 10.666667 0 0 0-10.666667 10.666666v448a10.666667 10.666667 0 0 0 10.666667 10.666667h448a10.666667 10.666667 0 0 0 10.666666-10.666667V181.333333a10.666667 10.666667 0 0 0-10.666666-10.666666H394.666667z m245.333333 597.333333a32 32 0 0 1 64 0v74.666667a74.666667 74.666667 0 0 1-74.666667 74.666666H181.333333a74.666667 74.666667 0 0 1-74.666666-74.666666V394.666667a74.666667 74.666667 0 0 1 74.666666-74.666667h74.666667a32 32 0 0 1 0 64h-74.666667a10.666667 10.666667 0 0 0-10.666666 10.666667v448a10.666667 10.666667 0 0 0 10.666666 10.666666h448a10.666667 10.666667 0 0 0 10.666667-10.666666v-74.666667z" p-id="3998" fill="#909399"></path></svg>