<svg t="1651997510984" class="icon" viewBox="0 0 1024 1024" version="1.1" xmlns="http://www.w3.org/2000/svg" p-id="3102" width="32" height="32"><path d="M850.346667 155.008a42.666667 42.666667 0 0 0-22.741334-23.509333c-8.704-3.754667-85.717333-33.322667-200.32 39.168H396.714667c-114.773333-72.618667-191.701333-42.922667-200.32-39.168a42.88 42.88 0 0 0-22.741334 23.466666c-26.197333 66.218667-18.048 136.448-7.850666 176.896C134.272 374.016 128 413.098667 128 469.333333c0 177.877333 127.104 227.882667 226.730667 246.272a189.568 189.568 0 0 0-13.013334 46.549334A44.373333 44.373333 0 0 0 341.333333 768v38.613333c-19.498667-4.138667-41.002667-11.946667-55.168-26.112C238.08 732.416 188.330667 682.666667 128 682.666667v85.333333c25.002667 0 65.365333 40.362667 97.834667 72.832 51.029333 51.029333 129.066667 55.253333 153.386666 55.253333 3.114667 0 5.376-0.085333 6.528-0.128A42.666667 42.666667 0 0 0 426.666667 853.333333v-82.090666c4.266667-24.746667 20.224-49.621333 27.946666-56.362667a42.666667 42.666667 0 0 0-23.125333-74.581333C293.333333 624.554667 213.333333 591.488 213.333333 469.333333c0-53.12 5.632-70.741333 31.573334-99.285333 11.008-12.117333 14.08-29.568 7.978666-44.8-4.821333-11.904-18.773333-65.450667-6.485333-117.546667 20.650667-1.578667 59.904 4.565333 113.706667 40.96C367.104 253.44 375.466667 256 384 256h256a42.666667 42.666667 0 0 0 23.936-7.338667c54.016-36.522667 92.970667-41.770667 113.664-41.130666 12.330667 52.224-1.578667 105.770667-6.4 117.674666a42.666667 42.666667 0 0 0 8.021333 44.928C805.077333 398.464 810.666667 416.085333 810.666667 469.333333c0 122.581333-79.957333 155.52-218.069334 170.922667a42.666667 42.666667 0 0 0-23.125333 74.709333c19.797333 17.066667 27.861333 32.469333 27.861333 53.034667v128h85.333334v-128c0-20.437333-3.925333-38.101333-9.770667-53.12C769.92 695.765333 896 643.712 896 469.333333c0-56.362667-6.272-95.530667-37.76-137.514666 10.197333-40.405333 18.261333-110.506667-7.893333-176.810667z" fill="#909399" p-id="3103"></path></svg>