<svg width="340" height="250" xmlns="http://www.w3.org/2000/svg" version="1.0" preserveAspectRatio="xMidYMid meet" color-interpolation-filters="sRGB">
 <g>
  <title>Layer 1</title>
  <g id="svg_8" stroke="null">
   <g class="tp-name" id="svg_9" stroke="null">
    <g transform="translate(127.81 92.5238) scale(1 1)" id="svg_10" stroke="null">
     <g id="svg_11" stroke="null">
      <g class="name-imagesvg" id="svg_12" stroke="null">
       <g id="svg_13" stroke="null">
        <rect fill="#333" fill-opacity="0" stroke-width="2" x="-117.77768" y="-59.32348" width="142.85523" height="191.6637" class="image-rect" id="svg_14" stroke="null"/>
        <g id="svg_1" transform="matrix(3.80947 0 0 3.83327 -246.788 -117.735)" stroke="null">
         <svg x="33.86591" y="15.23816" width="37.5" height="50" filtersec="colorsb5744192375" class="image-svg-svg primary" id="svg_5" stroke="null">
          <g id="svg_6" stroke="null">
           <svg viewBox="0 0 351 468" id="svg_17" stroke="null" xmlns="http://www.w3.org/2000/svg">
            <path d="m324.19,324.19l0,41.43a2.44,2.44 0 0 1 -4.21,1.69l-85.98,-90.31l-202.31,-212.41l0,374.16a2.44,2.44 0 0 1 -4.88,0l0,-380.25a2.44,2.44 0 0 1 4.19,-1.68l203,213.18l85.31,89.58l0,-40.27l-85.31,-85.31l-234,-234l0,468l351,0l0,-117l-26.81,-26.81z" fill="#94d30e" opacity="0.7" id="svg_25" stroke="null"/>
            <path d="m234,0l0,270l85.31,89.58l0,-330.33a2.44,2.44 0 0 1 4.88,0l0,336.37a2.44,2.44 0 0 1 -4.21,1.69l-85.98,-90.31l0,191l117,0l0,-468l-117,0z" fill="#2f97dd" opacity="0.7" id="svg_24" stroke="null"/>
           </svg>
          </g>
         </svg>
        </g>
        <!---->
       </g>
      </g>
     </g>
     <g id="svg_19" stroke="null">
      <g class="name-imagesvg" id="svg_20" stroke="null">
       <g id="svg_21" stroke="null">
        <rect fill="#333" fill-opacity="0" stroke-width="2" x="25.07756" y="-59.32348" width="178.58972" height="191.6637" class="image-rect" id="svg_22" stroke="null"/>
        <g id="svg_3" transform="matrix(3.80947 0 0 3.83327 -246.788 -117.735)" stroke="null">
         <svg x="71.36591" y="15.23816" width="46.88043" height="50" filtersec="colorsb9222763368" class="image-svg-svg primary" id="svg_26" stroke="null">
          <g id="svg_30" stroke="null">
           <svg viewBox="0 0 439.56 468.81" id="svg_34" stroke="null" xmlns="http://www.w3.org/2000/svg">
            <path d="m403.29,64.71c-34.61,-36.71 -87.73,-64.71 -169.29,-64.71c-235.62,0 -234,234 -234,234s0,234 234,234c70.38,0 119.56,-21.18 154,-50.78a197.45,197.45 0 0 0 14.95,-14.3l-168.95,-168.92l169.29,-169.29zm-168.47,362.67l-0.21,0c-0.44,0 -44.93,-4 -88.78,-29.58c-25.83,-15.07 -46.39,-34.56 -61.16,-57.94c-18.44,-29.21 -27.79,-64.55 -27.79,-105l0,-0.81c0.12,-40.16 9.46,-75.23 27.78,-104.24c14.78,-23.43 35.34,-42.92 61.17,-57.98c43.85,-25.57 88.34,-29.53 88.78,-29.57a2.44,2.44 0 0 1 0.41,4.86c-0.44,0 -44,3.93 -86.88,29c-25.09,14.67 -45.08,33.62 -59.4,56.33c-17.74,28.21 -26.85,62.37 -26.98,101.55l0,0.81c0,39.57 9.1,74 27.05,102.45c14.34,22.71 34.36,41.66 59.49,56.32c42.9,25 86.29,28.89 86.73,28.93a2.44,2.44 0 0 1 -0.2,4.87l-0.01,0z" fill="#2f97dd" opacity="0.7" id="svg_36" stroke="null"/>
            <path d="m439.56,468.81l-439.56,-0.81l0,-234l56.89,0l0,0.81c0,40.5 9.35,75.84 27.79,105.05c14.77,23.38 35.35,42.87 61.16,57.93c43.85,25.58 88.34,29.54 88.78,29.58l0.21,0a2.44,2.44 0 0 0 0.2,-4.87c-0.44,0 -43.83,-3.9 -86.73,-28.93c-25.14,-14.65 -45.16,-33.57 -59.5,-56.31c-18,-28.42 -27,-62.88 -27,-102.45l0,-0.81l143,0l183.2,183.22l51.56,51.59z" fill="#94d30e" opacity="0.7" id="svg_35" stroke="null"/>
           </svg>
          </g>
         </svg>
        </g>
        <!---->
       </g>
      </g>
     </g>
    </g>
   </g>
  </g>
  <text xml:space="preserve" text-anchor="start" font-family="'Alegreya'" font-size="40" id="svg_41" y="128.97089" x="247.79398" stroke-width="0" fill="#FFB27C" transform="matrix(1.15783 0 0 1.10365 -14.9034 2.66613)" stroke="#000">Ui</text>
 </g>

</svg>