<svg data-v-2cb57da0="" version="1.0" xmlns="http://www.w3.org/2000/svg" xmlns:xlink="http://www.w3.org/1999/xlink"
  width="100%" height="100%" viewBox="0 0 340.000000 250.000000" preserveAspectRatio="xMidYMid meet"
  color-interpolation-filters="sRGB" style="margin: auto;">
  <rect data-v-2cb57da0="" x="0" y="0" width="100%" height="100%" fill="#feffff" fill-opacity="0" class="background">
  </rect>
  <rect data-v-2cb57da0="" x="0" y="0" width="100%" height="100%" fill="url(#watermark)" fill-opacity="1"
    class="watermarklayer"></rect>
  <g data-v-2cb57da0="" fill="#333" class="iconlettersvg-g iconlettersvg"
    transform="translate(127.80978775024414,92.52375030517578)">
    <g>
      <g class="tp-name" transform="matrix(1,0,0,1,0,0)" opacity="1">
        <g transform="scale(1)">
          <g transform="translate(0, 0)">
            <g class="name-imagesvg">
              <g>
                <rect fill="#333" fill-opacity="0" stroke-width="2" x="0" y="0" width="37.5" height="50"
                  class="image-rect"></rect> <svg x="0" y="0" width="37.5" height="50" filtersec="colorsb5744192375"
                  class="image-svg-svg primary" style="overflow: visible;"><svg xmlns="http://www.w3.org/2000/svg"
                    viewBox="0 0 351 468">
                    <path
                      d="M324.19 324.19v41.43a2.44 2.44 0 0 1-4.21 1.69L234 277 31.69 64.59v374.16a2.44 2.44 0 0 1-4.88 0V58.5A2.44 2.44 0 0 1 31 56.82L234 270l85.31 89.58v-40.27L234 234 0 0v468h351V351z"
                      fill="#94d30e" opacity=".7"></path>
                    <path
                      d="M234 0v270l85.31 89.58V29.25a2.44 2.44 0 0 1 4.88 0v336.37a2.44 2.44 0 0 1-4.21 1.69L234 277v191h117V0z"
                      fill="#2f97dd" opacity=".7"></path>
                  </svg></svg>
                <!---->
              </g>
            </g>
          </g>
          <g transform="translate(37.5, 0)">
            <g class="name-imagesvg">
              <g>
                <rect fill="#333" fill-opacity="0" stroke-width="2" x="0" y="0" width="46.880425330976514" height="50"
                  class="image-rect"></rect> <svg x="0" y="0" width="46.880425330976514" height="50"
                  filtersec="colorsb9222763368" class="image-svg-svg primary" style="overflow: visible;"><svg
                    xmlns="http://www.w3.org/2000/svg" viewBox="0 0 439.56 468.81">
                    <path
                      d="M403.29 64.71C368.68 28 315.56 0 234 0-1.62 0 0 234 0 234s0 234 234 234c70.38 0 119.56-21.18 154-50.78a197.45 197.45 0 0 0 14.95-14.3L234 234zM234.82 427.38h-.21c-.44 0-44.93-4-88.78-29.58-25.83-15.07-46.39-34.56-61.16-57.94-18.44-29.21-27.79-64.55-27.79-105v-.81c.12-40.16 9.46-75.23 27.78-104.24 14.78-23.43 35.34-42.92 61.17-57.98 43.85-25.57 88.34-29.53 88.78-29.57a2.44 2.44 0 0 1 .41 4.86c-.44 0-44 3.93-86.88 29-25.09 14.67-45.08 33.62-59.4 56.33C71 160.66 61.89 194.82 61.76 234v.81c0 39.57 9.1 74 27.05 102.45 14.34 22.71 34.36 41.66 59.49 56.32 42.9 25 86.29 28.89 86.73 28.93a2.44 2.44 0 0 1-.2 4.87z"
                      fill="#2f97dd" opacity=".7"></path>
                    <path
                      d="M439.56 468.81L0 468V234h56.89v.81c0 40.5 9.35 75.84 27.79 105.05 14.77 23.38 35.35 42.87 61.16 57.93 43.85 25.58 88.34 29.54 88.78 29.58h.21a2.44 2.44 0 0 0 .2-4.87c-.44 0-43.83-3.9-86.73-28.93-25.14-14.65-45.16-33.57-59.5-56.31-18-28.42-27-62.88-27-102.45V234h143L388 417.22z"
                      fill="#94d30e" opacity=".7"></path>
                  </svg></svg>
                <!---->
              </g>
            </g>
          </g>
        </g>
      </g>
    </g>
    <g data-gra="path-slogan" fill-rule="" class="tp-slogan" fill="#333"
      transform="matrix(1,0,0,1,9.330211639404297,56)" opacity="1">
      <!---->
      <!---->
      <g transform="scale(1, 1)">
        <g transform="scale(1)">
          <path
            d="M2.30-8.58L6.61-1.64L6.61-8.58L7.73-8.58L7.73 0L6.42 0L2.06-6.94L2.02-6.94L2.02 0L0.89 0L0.89-8.58L2.30-8.58ZM9.70-8.58L10.88-8.58L10.88 0L9.70 0L9.70-8.58ZM14.25-8.58L18.56-1.64L18.56-8.58L19.69-8.58L19.69 0L18.38 0L14.02-6.94L13.97-6.94L13.97 0L12.84 0L12.84-8.58L14.25-8.58ZM22.78-1.03L27.94-1.03L27.94 0L21.61 0L21.61-8.58L27.84-8.58L27.84-7.59L22.78-7.59L22.78-4.92L27.47-4.92L27.47-3.89L22.78-3.89L22.78-1.03ZM36.61-6.05L36.61-6.05L35.48-6.05Q35.06-7.78 33.09-7.83L33.09-7.83Q30.38-7.69 30.28-4.36L30.28-4.36Q30.28-0.80 33.14-0.80L33.14-0.80Q35.11-0.84 35.58-3.19L35.58-3.19L36.70-3.19Q36.19 0.05 32.91 0.14L32.91 0.14Q29.16 0 29.06-4.31L29.06-4.31Q29.25-8.63 33.09-8.81L33.09-8.81Q36.14-8.72 36.61-6.05ZM43.73 0L42.89-2.48L39.42-2.48L38.53 0L37.36 0L40.59-8.58L41.91-8.58L45 0L43.73 0ZM41.16-7.31L39.80-3.52L42.47-3.52L41.20-7.31L41.16-7.31ZM48.23-7.59L45.33-7.59L45.33-8.58L52.27-8.58L52.27-7.59L49.36-7.59L49.36 0L48.23 0L48.23-7.59ZM62.30-3.19L62.30-8.58L63.47-8.58L63.47-3.05Q63.33 0.05 59.95 0.14L59.95 0.14Q56.81 0.05 56.67-2.86L56.67-2.86L56.67-8.58L57.84-8.58L57.84-3.19Q57.89-0.84 60-0.80L60-0.80Q62.30-0.84 62.30-3.19L62.30-3.19ZM65.44-8.58L66.61-8.58L66.61 0L65.44 0L65.44-8.58Z"
            transform="translate(-0.890625, 8.8125)"></path>
        </g>
      </g>
    </g>
  </g>
  <defs v-gra="od"></defs>
</svg>