<?xml version="1.0" standalone="no"?><!DOCTYPE svg PUBLIC "-//W3C//DTD SVG 1.1//EN" "http://www.w3.org/Graphics/SVG/1.1/DTD/svg11.dtd"><svg t="1585323971352" class="icon" viewBox="0 0 1024 1024" version="1.1" xmlns="http://www.w3.org/2000/svg" p-id="3869" xmlns:xlink="http://www.w3.org/1999/xlink" width="128" height="128"><defs><style type="text/css"></style></defs><path d="M1024 182.857143l-292.571429-73.142857-109.714285-109.714286v365.714286h-62.464C351.378286 365.714286 182.857143 554.020571 182.857143 786.285714c0 6.144 0.402286 12.178286 0.621714 18.285715H128a18.541714 18.541714 0 0 1-18.285714-18.285715v-146.285714c0-25.453714 17.627429-68.059429 35.657143-86.052571l61.147428-61.184c48.164571-48.128 53.174857-128.036571 11.300572-181.906286L134.729143 204.032a54.857143 54.857143 0 0 0-86.601143 67.364571l83.053714 106.788572c7.68 9.874286 6.582857 28.196571-2.230857 37.010286l-61.147428 61.147428C29.147429 514.962286 0 585.325714 0 640v146.285714C0 856.868571 57.417143 914.285714 128 914.285714h72.740571a440.32 440.32 0 0 0 48.128 109.714286H475.428571l36.571429-146.285714 293.851429-142.226286L877.714286 1024h146.285714l-146.505143-658.285714C987.428571 365.714286 1024 256 1024 182.857143" fill="#E67E22" p-id="3870"></path><path d="M402.285714 658.285714a218.331429 218.331429 0 0 0-73.142857 12.763429V1024h236.361143A218.258286 218.258286 0 0 0 621.714286 877.714286a219.428571 219.428571 0 0 0-219.428572-219.428572" fill="#D35400" p-id="3871"></path><path d="M621.714286 877.714286h-73.142857a219.428571 219.428571 0 0 0-219.428572-219.428572v365.714286h438.857143a146.285714 146.285714 0 0 0-146.285714-146.285714" fill="#E67E22" p-id="3872"></path><path d="M804.571429 182.857143a36.571429 36.571429 0 1 1 0 73.142857 36.571429 36.571429 0 1 1 0-73.142857" fill="#FFFFFF" p-id="3873"></path></svg>